<?xml version="1.0" encoding="utf-8"?>
<!-- Generator: Adobe Illustrator 16.0.0, SVG Export Plug-In . SVG Version: 6.00 Build 0)  -->
<!DOCTYPE svg PUBLIC "-//W3C//DTD SVG 1.1//EN" "http://www.w3.org/Graphics/SVG/1.1/DTD/svg11.dtd">
<svg version="1.1" id="Layer_1" xmlns="http://www.w3.org/2000/svg" xmlns:xlink="http://www.w3.org/1999/xlink" x="0px" y="0px"
	 width="1101.004px" height="81.955px" viewBox="-380.223 -28.302 1101.004 81.955"
	 enable-background="new -380.223 -28.302 1101.004 81.955" xml:space="preserve">
<g>
	<path fill="#E5EAE9" d="M-344.31-2.751V7.728h22.564v14.394h-22.564v28.897h-35.913v-76.678h78.964v22.905L-344.31-2.751
		L-344.31-2.751z"/>
	<path fill="#E5EAE9" d="M-250.426,51.01l-3.798-12.777h-20.14l-4.259,12.777h-31.543l29.355-76.673h37.517l29.706,76.673H-250.426z
		 M-263.316,5.193L-268.5,21.66h9.554L-263.316,5.193z"/>
	<path fill="#E5EAE9" d="M-154.169,51.01h-56.059v-76.669h55.027c19.458,0,28.313,8.417,28.313,19.691v1.493
		c0,7.6-5.863,14.615-18.296,17.15c13.352,2.305,18.649,8.635,18.649,17.153v1.837C-126.541,42.605-134.835,51.01-154.169,51.01z
		 M-161.768,0.018c0-3.224-2.071-4.493-7.019-4.493h-5.525V6.8h5.525c4.95,0,7.019-1.383,7.019-4.606V0.018z M-161.768,23.494
		c0-3.327-2.071-4.717-7.019-4.717h-5.525v11.397h5.525c4.95,0,7.019-1.383,7.019-4.606V23.494z"/>
	<path fill="#E5EAE9" d="M-118.865,51.01v-76.669h35.802v76.672h-35.802V51.01z"/>
	<path fill="#E5EAE9" d="M-72.891,51.01v-76.669H4.58v22.905h-41.555v8.288h26.132v12.78h-26.132v8.058H4.58V51h-77.471V51.01z"/>
	<path fill="#E5EAE9" d="M71.844,51.01L49.046,24.767l-3.331-4.606v30.85H13.591v-76.669h29.355L67.351,0.943l2.882,3.678v-30.281
		h32.115v76.672H71.844V51.01z"/>
	<path fill="#E5EAE9" d="M137.914,51.01v-76.669h35.799v52.04h41.792v24.633h-77.591V51.01z"/>
	<path fill="#E5EAE9" d="M276.843,51.01l-3.814-12.777h-20.136l-4.26,12.777h-31.54l29.353-76.673h37.52l29.703,76.673H276.843z
		 M263.946,5.193l-5.184,16.468h9.544L263.946,5.193z"/>
	<path fill="#E5EAE9" d="M373.086,51.01h-56.056v-76.669h55.026c19.448,0,28.317,8.417,28.317,19.691v1.493
		c0,7.6-5.876,14.615-18.3,17.15c13.353,2.305,18.646,8.635,18.646,17.153v1.837C400.715,42.605,392.427,51.01,373.086,51.01z
		 M365.496,0.018c0-3.224-2.087-4.493-7.034-4.493h-5.519V6.8h5.519c4.947,0,7.034-1.383,7.034-4.606V0.018z M365.496,23.494
		c0-3.327-2.087-4.717-7.034-4.717h-5.519v11.397h5.519c4.947,0,7.034-1.383,7.034-4.606V23.494z"/>
	<path fill="#E5EAE9" d="M450.854,53.653c-28.888,0-46.038-16.459-46.038-37.062V8.647c-0.003-20.718,17.156-36.949,46.038-36.949
		c28.778,0,45.814,16.231,45.814,36.949v7.943C496.668,37.194,479.638,53.653,450.854,53.653z M460.184,7.15
		c0-7.019-2.074-12.43-9.333-12.43c-7.242,0-9.443,5.412-9.443,12.43v10.936c0,6.905,2.201,12.326,9.443,12.326
		c7.259,0,9.333-5.421,9.333-12.326V7.15z"/>
	<path fill="#E5EAE9" d="M560.276,51.01c-4.266,0-8.174-5.302-8.174-11.853v-8.297c0-4.714-1.036-7.366-6.33-7.366h-5.759v27.521
		H504.21v-76.675h53.988c18.996,0,30.277,8.645,30.277,20.5v2.759c0,7.369-5.873,14.157-16.234,16.345
		c11.745,1.272,15.3,8.287,15.3,16.234v8.054c0,4.833,1.272,8.407,3.811,11.744v1.033H560.276L560.276,51.01z M552.556,0.937
		c0-3.697-1.951-5.064-7.018-5.064h-5.531V9.221h5.531c5.061,0,7.018-2.188,7.018-5.746V0.937z"/>
	<path fill="#E5EAE9" d="M597.331,51.01v-76.669h35.796v76.672h-35.796V51.01z"/>
	<path fill="#E5EAE9" d="M643.3,51.01v-76.669h77.48v22.905h-41.564v8.288h26.132v12.78h-26.132v8.058h41.558V51h-77.477
		L643.3,51.01L643.3,51.01z"/>
</g>
</svg>
