<?xml version="1.0" encoding="utf-8"?>
<!-- Generator: Adobe Illustrator 16.0.0, SVG Export Plug-In . SVG Version: 6.00 Build 0)  -->
<!DOCTYPE svg PUBLIC "-//W3C//DTD SVG 1.1//EN" "http://www.w3.org/Graphics/SVG/1.1/DTD/svg11.dtd">
<svg version="1.1" id="Layer_1" xmlns="http://www.w3.org/2000/svg" xmlns:xlink="http://www.w3.org/1999/xlink" x="0px" y="0px"
	 width="340.557px" height="25.35px" viewBox="0 0 340.557 25.35" enable-background="new 0 0 340.557 25.35" xml:space="preserve">
<g>
	<path fill="#E5EAE9" d="M11.109,7.904v3.241h6.979v4.452h-6.979v8.938H0V0.818h24.425v7.085L11.109,7.904L11.109,7.904z"/>
	<path fill="#E5EAE9" d="M40.149,24.532l-1.175-3.952h-6.23l-1.317,3.952H21.67l9.08-23.715h11.605l9.188,23.715H40.149z
		 M36.161,10.361l-1.603,5.093h2.955L36.161,10.361z"/>
	<path fill="#E5EAE9" d="M69.922,24.532h-17.34V0.818h17.021c6.018,0,8.758,2.603,8.758,6.09V7.37c0,2.351-1.814,4.521-5.66,5.305
		c4.13,0.713,5.769,2.671,5.769,5.306v0.568C78.468,21.933,75.903,24.532,69.922,24.532z M67.572,8.76
		c0-0.997-0.641-1.39-2.171-1.39h-1.709v3.488h1.709c1.531,0,2.171-0.428,2.171-1.425V8.76z M67.572,16.022
		c0-1.03-0.641-1.459-2.171-1.459h-1.709v3.525h1.709c1.531,0,2.171-0.428,2.171-1.425V16.022z"/>
	<path fill="#E5EAE9" d="M80.842,24.532V0.818h11.074v23.715H80.842L80.842,24.532z"/>
	<path fill="#E5EAE9" d="M95.063,24.532V0.818h23.963v7.085h-12.854v2.563h8.083v3.953h-8.083v2.492h12.854v7.619H95.063V24.532z"/>
	<path fill="#E5EAE9" d="M139.831,24.532l-7.051-8.117l-1.031-1.425v9.542h-9.936V0.818h9.08l7.549,8.228l0.891,1.138V0.818h9.934
		v23.715H139.831L139.831,24.532z"/>
	<path fill="#E5EAE9" d="M160.268,24.532V0.818h11.073v16.096h12.927v7.619H160.268L160.268,24.532z"/>
	<path fill="#E5EAE9" d="M203.24,24.532l-1.179-3.952h-6.229l-1.317,3.952h-9.756l9.079-23.715h11.606l9.187,23.715H203.24z
		 M199.251,10.361l-1.603,5.093h2.952L199.251,10.361z"/>
	<path fill="#E5EAE9" d="M233.01,24.532h-17.339V0.818h17.021c6.015,0,8.758,2.603,8.758,6.09V7.37c0,2.351-1.817,4.521-5.66,5.305
		c4.13,0.713,5.768,2.671,5.768,5.306v0.568C241.556,21.933,238.992,24.532,233.01,24.532z M230.662,8.76
		c0-0.997-0.645-1.39-2.175-1.39h-1.707v3.488h1.707c1.53,0,2.175-0.428,2.175-1.425V8.76z M230.662,16.022
		c0-1.03-0.645-1.459-2.175-1.459h-1.707v3.525h1.707c1.53,0,2.175-0.428,2.175-1.425V16.022z"/>
	<path fill="#E5EAE9" d="M257.065,25.35c-8.936,0-14.241-5.091-14.241-11.464v-2.457C242.823,5.021,248.131,0,257.065,0
		c8.901,0,14.171,5.021,14.171,11.429v2.457C271.236,20.259,265.968,25.35,257.065,25.35z M259.95,10.966
		c0-2.171-0.641-3.845-2.886-3.845c-2.241,0-2.921,1.674-2.921,3.845v3.383c0,2.136,0.68,3.812,2.921,3.812
		c2.245,0,2.886-1.676,2.886-3.812V10.966z"/>
	<path fill="#E5EAE9" d="M290.91,24.532c-1.319,0-2.528-1.639-2.528-3.666V18.3c0-1.458-0.32-2.278-1.958-2.278h-1.781v8.512
		h-11.074V0.818h16.699c5.876,0,9.365,2.673,9.365,6.34v0.854c0,2.279-1.816,4.379-5.021,5.056c3.632,0.393,4.732,2.563,4.732,5.021
		v2.491c0,1.495,0.394,2.601,1.179,3.633v0.319L290.91,24.532L290.91,24.532z M288.523,9.044c0-1.143-0.604-1.566-2.171-1.566
		h-1.711v4.129h1.711c1.565,0,2.171-0.677,2.171-1.778V9.044z"/>
	<path fill="#E5EAE9" d="M302.372,24.532V0.818h11.073v23.715H302.372L302.372,24.532z"/>
	<path fill="#E5EAE9" d="M316.591,24.532V0.818h23.966v7.085H327.7v2.563h8.083v3.953H327.7v2.492h12.855v7.619H316.59
		L316.591,24.532L316.591,24.532z"/>
</g>
</svg>
